<svg version="1.1" id="Layer_1" xmlns="http://www.w3.org/2000/svg" xmlns:xlink="http://www.w3.org/1999/xlink" x="0px" y="0px" width="18" viewBox="3 3 12 12" enable-background="new 0 0 64 64" xml:space="preserve" height="18">
  <path fill="#73A82F" opacity="1.000000" stroke="none" d="M3.923 11.537c0.067 -0.534 0.058 -1.498 0.215 -1.526 0.683 -0.121 1.439 -0.064 2.117 0.119 0.418 0.113 0.744 0.568 1.111 0.87l0.273 -0.229c-0.279 -0.431 -0.559 -0.862 -0.771 -1.378 0.489 -0.207 0.911 -0.329 1.333 -0.451 0.31 0.406 0.55 0.905 0.943 1.201 1.14 0.86 0.876 1.757 0.457 2.418 -0.591 -0.431 -1.21 -0.881 -2.024 -1.281 -0.709 0.24 -1.222 0.429 -1.835 0.627 -0.363 0.002 -0.627 -0.006 -0.971 -0.08 -0.337 -0.141 -0.593 -0.216 -0.85 -0.291" stroke-width="0.28125"/>
  <path fill="#74AB2F" opacity="1.000000" stroke="none" d="M14.575 10.187a17.438 17.438 0 0 1 0.295 0.994L10.848 12.938c-0.418 -0.588 -0.289 -1.294 0.773 -2.362 0.824 -0.829 1.746 -1.464 2.954 -0.388" stroke-width="0.28125"/>
  <path fill="#A9D560" opacity="1.000000" stroke="none" d="M10.111 7.588c-0.247 -1.269 -0.516 -1.366 -1.947 -0.583 -1.041 0.042 -1.861 0.045 -2.681 0.048l0.28 -0.911c0.521 -0.039 0.855 -0.064 1.371 -0.162 0.969 -0.072 1.766 0.002 2.542 -0.093 0.632 -0.077 1.239 -0.356 1.857 -0.545 0.474 0.495 0.948 0.989 1.319 1.586 -0.983 0.288 -1.861 0.474 -2.74 0.661" stroke-width="0.28125"/>
  <path fill="#97C74E" opacity="1.000000" stroke="none" d="M10.016 7.627a75.375 75.375 0 0 1 2.848 -0.602c0.228 0.361 0.339 0.727 0.516 1.312l-1.313 -0.418c-0.067 0.082 -0.205 0.172 -0.214 0.274 -0.114 1.286 -1.211 0.794 -1.888 0.984 -0.153 0.043 -0.607 -0.473 -0.664 -0.78 -0.037 -0.198 0.397 -0.484 0.715 -0.769" stroke-width="0.28125"/>
  <path fill="#416D10" opacity="1.000000" stroke="none" d="M4.854 11.893c0.264 0.008 0.528 0.016 0.972 0.066 0.928 0.443 1.675 0.844 2.423 1.245 0.155 0.409 0.31 0.818 0.467 1.324 0.003 0.096 0.002 0.098 0.002 0.098l-1.166 -0.718c-0.768 -0.472 -1.397 -1.315 -2.515 -0.834 -0.133 0.057 -0.473 -0.366 -0.655 -0.688 0.199 -0.246 0.336 -0.37 0.472 -0.494" stroke-width="0.28125"/>
  <path fill="#B1DB68" opacity="1.000000" stroke="none" d="M11.478 5.261c-0.563 0.27 -1.17 0.548 -1.801 0.626 -0.776 0.095 -1.572 0.021 -2.489 0.019 0.177 -0.451 0.483 -0.9 0.89 -1.287 0.357 0.199 0.615 0.447 0.872 0.446 0.39 -0.003 0.778 -0.178 1.167 -0.28 0.435 0.132 0.871 0.264 1.361 0.477" stroke-width="0.28125"/>
  <path fill="#BADF6D" opacity="1.000000" stroke="none" d="M10.111 4.687c-0.384 0.199 -0.772 0.375 -1.162 0.377 -0.257 0.002 -0.514 -0.247 -0.783 -0.476 0.717 -0.504 1.446 -0.915 2.479 -1.498 -0.278 0.771 -0.409 1.135 -0.534 1.596" stroke-width="0.28125"/>
  <path fill="#A0D055" opacity="1.000000" stroke="none" d="M5.451 7.166c0.852 -0.116 1.672 -0.119 2.626 -0.117 0.009 0.304 -0.116 0.604 -0.38 1.001 -0.828 0.12 -1.517 0.141 -2.206 0.162 -0.024 -0.311 -0.048 -0.622 -0.04 -1.046" stroke-width="0.28125"/>
  <path fill="#8AB945" opacity="1.000000" stroke="none" d="M5.518 8.305c0.662 -0.114 1.351 -0.135 2.166 -0.158 0.244 0.205 0.362 0.412 0.499 0.707 -0.403 0.21 -0.825 0.332 -1.361 0.455 -0.502 -0.303 -0.89 -0.606 -1.304 -1.004" stroke-width="0.28125"/>
  <path fill="#72AA2C" opacity="1.000000" stroke="none" d="M8.214 13.106c-0.713 -0.303 -1.461 -0.704 -2.289 -1.157 0.432 -0.24 0.945 -0.429 1.552 -0.661 0.296 0.545 0.5 1.131 0.738 1.817" stroke-width="0.28125"/>
  <path fill="#72AA2C" opacity="1.000000" stroke="none" d="M4.773 11.828c-0.056 0.189 -0.193 0.313 -0.397 0.463 -0.19 -0.175 -0.312 -0.376 -0.444 -0.666 0.247 -0.013 0.504 0.062 0.841 0.202" stroke-width="0.28125"/>
  <path fill="#416D10" opacity="1.000000" stroke="none" d="M8.719 14.625c0.001 -0.001 0.074 0.062 0.074 0.062s-0.075 -0.007 -0.075 -0.034c0 -0.027 0.001 -0.028 0.001 -0.029" stroke-width="0.28125"/>
</svg>
