<svg version="1.1" id="Layer_1" xmlns="http://www.w3.org/2000/svg" xmlns:xlink="http://www.w3.org/1999/xlink" x="0px" y="0px" width="18" viewBox="3 3 12
  12" height="18">
  <path fill="#2E617D" opacity="1.000000" stroke="none" d="M13.266 11.013 9.057 15.099c-1.195 -1.29 -2.429 -2.623 -3.578 -4.053 0.674 0.243 1.245 0.621 1.86 0.903 0.209 0.096 0.53 -0.052 0.892 -0.077 0.404 0.267 0.716 0.523 1.049 0.796 0.402 -0.321 0.754 -0.602 1.131 -0.8 0.282 0.096 0.591 0.207 0.786 0.104 0.646 -0.341 1.252 -0.759 1.921 -1.101z" stroke-width="0.28125"/>
  <path fill="#5DA3BB" opacity="1.000000" stroke="none" d="M4.767 8.41c0.692 -0.727 1.384 -1.454 2.171 -2.118 0.42 0.285 0.746 0.508 1.062 0.831 0.047 0.22 0.104 0.34 0.129 0.555a1.941 1.941 0 0 1 -0.759 0.497c-0.547 0.434 -1.002 0.904 -1.464 1.452 -0.409 0.174 -0.812 0.271 -1.214 0.367 -0.1 -0.047 -0.2 -0.094 -0.243 -0.278a27.563 27.563 0 0 0 0.318 -1.306" stroke-width="0.28125"/>
  <path fill="#5DA3BB" opacity="1.000000" stroke="none" d="M11.545 6.155c0.719 0.698 1.438 1.397 2.203 2.289 0.029 0.572 0.012 0.949 -0.071 1.371 -0.198 0.132 -0.33 0.22 -0.544 0.283 -0.217 -0.2 -0.35 -0.374 -0.472 -0.648 -0.512 -0.479 -1.035 -0.859 -1.656 -1.267 -0.266 -0.219 -0.434 -0.41 -0.563 -0.692 0.064 -0.217 0.088 -0.342 0.21 -0.471a7.987 7.987 0 0 0 0.894 -0.865" stroke-width="0.28125"/>
  <path fill="#79CBE3" opacity="1.000000" stroke="none" d="m8.143 5.035 1.905 -2.055c0.065 0.809 0.113 1.407 0.249 2.161 -0.192 0.362 -0.472 0.568 -0.84 0.761 -0.204 -0.004 -0.321 0.005 -0.54 0.002a6.609 6.609 0 0 1 -0.774 -0.869" stroke-width="0.28125"/>
  <path fill="#4885A1" opacity="1.000000" stroke="none" d="M4.655 10.081c0.439 -0.184 0.842 -0.281 1.339 -0.42 0.778 0.705 1.462 1.452 2.145 2.199 -0.269 0.037 -0.59 0.184 -0.799 0.088 -0.615 -0.282 -1.186 -0.66 -1.875 -0.997a2.897 2.897 0 0 1 -0.809 -0.87" stroke-width="0.28125"/>
  <path fill="#6AB8D0" opacity="1.000000" stroke="none" d="M9.544 5.914c0.28 -0.205 0.561 -0.411 0.849 -0.714 0.364 0.199 0.719 0.496 1.113 0.874 -0.227 0.368 -0.492 0.654 -0.924 0.878a10.013 10.013 0 0 1 -1.039 -1.037" stroke-width="0.28125"/>
  <path fill="#6CB8D0" opacity="1.000000" stroke="none" d="M8.059 5.066c0.308 0.254 0.532 0.54 0.825 0.925 -0.246 0.41 -0.56 0.721 -0.874 1.032 -0.326 -0.223 -0.651 -0.446 -0.984 -0.768 0.311 -0.452 0.63 -0.804 1.034 -1.189" stroke-width="0.28125"/>
  <path fill="#4884A0" opacity="1.000000" stroke="none" d="M13.743 9.771c0.017 -0.378 0.034 -0.756 0.052 -1.247 0.228 0.328 0.456 0.77 0.508 1.248 -0.304 0.024 -0.432 0.011 -0.56 -0.001" stroke-width="0.28125"/>
  <path fill="#4885A1" opacity="1.000000" stroke="none" d="M4.679 8.446c0.001 0.354 -0.086 0.743 -0.239 1.183 -0.608 -0.312 -0.6 -0.357 0.239 -1.183" stroke-width="0.28125"/>
  <path fill="#2E617D" opacity="1.000000" stroke="none" d="M13.677 9.814c0.195 -0.031 0.323 -0.018 0.546 0.004 -0.202 0.377 -0.5 0.745 -0.878 1.154 -0.08 0.041 -0.177 -0.053 -0.188 -0.182 0.012 -0.308 0.035 -0.488 0.057 -0.668 0.132 -0.088 0.263 -0.177 0.461 -0.308" stroke-width="0.28125"/>
  <path fill="#4884A0" opacity="1.000000" stroke="none" d="M10.412 11.867a28.969 28.969 0 0 1 2.149 -2.284c0.221 0.14 0.355 0.314 0.572 0.514 0.06 0.205 0.037 0.385 -0.023 0.646 -0.659 0.47 -1.265 0.888 -1.911 1.229 -0.196 0.103 -0.505 -0.008 -0.786 -0.104" stroke-width="0.28125"/>
  <path fill="#569BB1" opacity="1.000000" stroke="none" d="M8.129 7.678c0.371 0.19 0.71 0.475 1.169 0.861 0.307 -0.293 0.617 -0.589 1.016 -0.921 0.257 0.154 0.425 0.345 0.691 0.564 -0.455 0.634 -1.007 1.24 -1.835 2.149a163.969 163.969 0 0 1 -1.656 -2.037c0.159 -0.229 0.371 -0.375 0.615 -0.616" stroke-width="0.28125"/>
</svg>
