<svg version="1.1" id="Layer_1" xmlns="http://www.w3.org/2000/svg" xmlns:xlink="http://www.w3.org/1999/xlink" x="0px" y="0px"
	 width="100%" viewBox="0 0 64 64" enable-background="new 0 0 64 64" xml:space="preserve">
<path fill="#010202" opacity="1.000000" stroke="none" 
	d="
M36.000000,65.000000 
	C24.022503,65.000000 12.545007,65.000000 1.033755,65.000000 
	C1.033755,43.730957 1.033755,22.461853 1.033755,1.096373 
	C22.226950,1.096373 43.454483,1.096373 64.841003,1.096373 
	C64.841003,22.332388 64.841003,43.666080 64.841003,65.000000 
	C55.462799,65.000000 45.981400,65.000000 36.000000,65.000000 
M51.482269,34.614220 
	C50.671822,33.043514 49.861374,31.472809 48.717400,29.333059 
	C46.161083,26.849743 43.604763,24.366426 40.776917,21.307487 
	C39.512733,20.252605 38.248550,19.197723 36.297478,17.721643 
	C36.127331,15.597214 35.957184,13.472784 35.726810,10.596422 
	C33.110729,13.417964 31.032204,15.659731 28.353775,18.126368 
	C27.219837,19.380676 26.085899,20.634985 24.332588,22.151464 
	C21.871595,24.735336 19.410603,27.319210 16.319487,30.157545 
	C13.651144,32.967129 13.621896,33.129238 15.618058,35.031216 
	C15.972690,35.198437 16.327322,35.365658 16.420511,36.155491 
	C17.302889,37.087406 18.185265,38.019321 19.176754,39.620819 
	C23.565680,44.359043 27.954605,49.097263 32.203796,53.684631 
	C36.966972,49.060432 42.067307,44.108910 47.735275,38.864098 
	C48.794392,37.556126 49.853508,36.248154 51.482269,34.614220 
M7.540201,42.700367 
	C10.377443,45.316456 13.214685,47.932541 16.051928,50.548626 
	C16.502005,50.397762 16.952082,50.246899 17.402157,50.096035 
	C17.177975,48.401245 17.503132,46.317924 16.629396,45.082539 
	C13.689802,40.926212 10.323434,37.071728 6.713737,32.597801 
	C3.561973,35.601097 5.686566,38.897888 7.540201,42.700367 
z"/>
<path fill="#2E617D" opacity="1.000000" stroke="none" 
	d="
M47.167641,39.157387 
	C42.067307,44.108910 36.966972,49.060432 32.203796,53.684631 
	C27.954605,49.097263 23.565680,44.359043 19.483109,39.273121 
	C21.880718,40.136070 23.910400,41.481155 26.097363,42.482857 
	C26.840799,42.823368 27.980631,42.298439 29.268394,42.208466 
	C30.706137,43.157887 31.814817,44.067825 32.998104,45.038990 
	C34.426708,43.899879 35.680477,42.900173 37.021408,42.195469 
	C38.022476,42.536713 39.120564,42.932228 39.816540,42.565208 
	C42.114899,41.353180 44.267967,39.865635 46.649437,38.652313 
	C46.822071,38.820774 47.167641,39.157387 47.167641,39.157387 
z"/>
<path fill="#141314" opacity="1.000000" stroke="none" 
	d="
M7.292360,42.424183 
	C5.686566,38.897888 3.561973,35.601097 6.713737,32.597801 
	C10.323434,37.071728 13.689802,40.926212 16.629396,45.082539 
	C17.503132,46.317924 17.177975,48.401245 17.402157,50.096035 
	C16.952082,50.246899 16.502005,50.397762 16.051928,50.548626 
	C13.214685,47.932541 10.377443,45.316456 7.292360,42.424183 
z"/>
<path fill="#5DA3BB" opacity="1.000000" stroke="none" 
	d="
M16.949610,29.903084 
	C19.410603,27.319210 21.871595,24.735336 24.668583,22.371683 
	C26.162668,23.385298 27.320763,24.178692 28.445217,25.325407 
	C28.612835,26.106428 28.814091,26.534130 28.901701,27.300182 
	C28.035612,28.157011 27.283173,28.675489 26.203499,29.065678 
	C24.259031,30.609058 22.641796,32.280731 20.999252,34.227058 
	C19.543280,34.845436 18.112617,35.189159 16.681953,35.532879 
	C16.327322,35.365658 15.972690,35.198437 15.818657,34.544838 
	C16.329372,32.673332 16.639490,31.288208 16.949610,29.903084 
z"/>
<path fill="#5DA3BB" opacity="1.000000" stroke="none" 
	d="
M41.048447,21.883108 
	C43.604763,24.366426 46.161083,26.849743 48.881905,30.021364 
	C48.985973,32.052982 48.925537,33.396297 48.628494,34.894184 
	C47.924068,35.362347 47.456242,35.675941 46.693382,35.900146 
	C45.922916,35.190342 45.447487,34.569931 45.013248,33.597359 
	C43.193600,31.894320 41.332756,30.543444 39.125862,29.091906 
	C38.180733,28.313272 37.581657,27.635300 37.122818,26.632177 
	C37.349148,25.862131 37.435242,25.417234 37.869949,24.956566 
	C39.161861,23.921566 40.105152,22.902336 41.048447,21.883108 
z"/>
<path fill="#79CBE3" opacity="1.000000" stroke="none" 
	d="
M28.953678,17.901501 
	C31.032204,15.659731 33.110729,13.417964 35.726810,10.596422 
	C35.957184,13.472784 36.127331,15.597214 36.611542,18.278816 
	C35.928703,19.566721 34.931793,20.297451 33.624882,20.985384 
	C32.899536,20.972000 32.484196,21.001413 31.705799,20.990608 
	C30.546389,19.934093 29.750034,18.917797 28.953678,17.901501 
z"/>
<path fill="#4885A1" opacity="1.000000" stroke="none" 
	d="
M16.551233,35.844185 
	C18.112617,35.189159 19.543280,34.845436 21.312027,34.349663 
	C24.079851,36.854736 26.509590,39.511856 28.939331,42.168976 
	C27.980631,42.298439 26.840799,42.823368 26.097363,42.482857 
	C23.910400,41.481155 21.880718,40.136070 19.428551,38.938332 
	C18.185265,38.019321 17.302889,37.087406 16.551233,35.844185 
z"/>
<path fill="#6AB8D0" opacity="1.000000" stroke="none" 
	d="
M33.934887,21.028181 
	C34.931793,20.297451 35.928703,19.566721 36.954987,18.489416 
	C38.248550,19.197723 39.512733,20.252605 40.912682,21.595299 
	C40.105152,22.902336 39.161861,23.921566 37.628838,24.716169 
	C36.004368,23.337090 34.969627,22.182634 33.934887,21.028181 
z"/>
<path fill="#6CB8D0" opacity="1.000000" stroke="none" 
	d="
M28.653728,18.013935 
	C29.750034,18.917797 30.546389,19.934093 31.586983,21.301937 
	C30.713766,22.759684 29.596312,23.865887 28.478855,24.972088 
	C27.320763,24.178692 26.162668,23.385298 24.978268,22.240597 
	C26.085899,20.634985 27.219837,19.380676 28.653728,18.013935 
z"/>
<path fill="#4884A0" opacity="1.000000" stroke="none" 
	d="
M48.865097,34.739609 
	C48.925537,33.396297 48.985973,32.052982 49.048668,30.305885 
	C49.861374,31.472809 50.671822,33.043514 50.855988,34.744850 
	C49.774841,34.830193 49.319969,34.784901 48.865097,34.739609 
z"/>
<path fill="#4885A1" opacity="1.000000" stroke="none" 
	d="
M16.634548,30.030315 
	C16.639490,31.288208 16.329372,32.673332 15.785242,34.237083 
	C13.621896,33.129238 13.651144,32.967129 16.634548,30.030315 
z"/>
<path fill="#2E617D" opacity="1.000000" stroke="none" 
	d="
M48.628498,34.894180 
	C49.319969,34.784901 49.774841,34.830193 50.571167,34.907829 
	C49.853508,36.248154 48.794392,37.556126 47.451458,39.010742 
	C47.167641,39.157387 46.822071,38.820774 46.783554,38.364521 
	C46.826160,37.268692 46.907291,36.629112 46.988419,35.989536 
	C47.456242,35.675941 47.924068,35.362347 48.628498,34.894180 
z"/>
<path fill="#050909" opacity="1.000000" stroke="none" 
	d="
M29.268393,42.208466 
	C26.509590,39.511856 24.079851,36.854736 21.337337,34.075008 
	C22.641796,32.280731 24.259031,30.609058 26.388750,29.362951 
	C28.647142,31.915232 30.393051,34.041946 32.603016,36.733936 
	C35.547043,33.501694 37.509483,31.347136 39.471924,29.192570 
	C41.332756,30.543444 43.193600,31.894320 44.702209,33.720688 
	C41.878071,36.764275 39.406158,39.332371 36.934246,41.900467 
	C35.680477,42.900173 34.426708,43.899879 32.998104,45.038990 
	C31.814817,44.067825 30.706137,43.157887 29.268393,42.208466 
z"/>
<path fill="#4884A0" opacity="1.000000" stroke="none" 
	d="
M37.021408,42.195469 
	C39.406158,39.332371 41.878071,36.764275 44.661018,34.072845 
	C45.447487,34.569931 45.922916,35.190342 46.693382,35.900146 
	C46.907291,36.629112 46.826160,37.268692 46.610920,38.196060 
	C44.267967,39.865635 42.114899,41.353180 39.816540,42.565208 
	C39.120564,42.932228 38.022476,42.536713 37.021408,42.195469 
z"/>
<path fill="#050806" opacity="1.000000" stroke="none" 
	d="
M28.445217,25.325407 
	C29.596312,23.865887 30.713766,22.759684 31.950039,21.342155 
	C32.484196,21.001413 32.899536,20.972000 33.624882,20.985384 
	C34.969627,22.182634 36.004368,23.337090 37.280220,24.731941 
	C37.435242,25.417234 37.349148,25.862131 36.808876,26.761425 
	C35.251675,28.268188 34.148647,29.320555 33.057259,30.361818 
	C31.425102,28.988876 30.220226,27.975353 29.015348,26.961832 
	C28.814091,26.534130 28.612835,26.106428 28.445217,25.325407 
z"/>
<path fill="#569BB1" opacity="1.000000" stroke="none" 
	d="
M28.901701,27.300182 
	C30.220226,27.975353 31.425102,28.988876 33.057259,30.361818 
	C34.148647,29.320555 35.251675,28.268188 36.668640,27.086575 
	C37.581657,27.635300 38.180733,28.313272 39.125870,29.091911 
	C37.509483,31.347136 35.547043,33.501694 32.603016,36.733936 
	C30.393051,34.041946 28.647142,31.915232 26.715984,29.491241 
	C27.283173,28.675489 28.035612,28.157011 28.901701,27.300182 
z"/>
</svg>
