<svg version="1.1" id="Layer_1" xmlns="http://www.w3.org/2000/svg" xmlns:xlink="http://www.w3.org/1999/xlink" x="0px" y="0px"
	 width="100%" viewBox="0 0 64 64" enable-background="new 0 0 64 64" xml:space="preserve">
<path fill="#030402" opacity="1.000000" stroke="none" 
	d="
M43.000290,65.000000 
	C28.666895,65.000000 14.833565,65.000000 1.000176,65.000000 
	C1.000118,43.666752 1.000118,22.333500 1.000059,1.000188 
	C22.333244,1.000125 43.666489,1.000125 64.999802,1.000063 
	C64.999863,22.333239 64.999863,43.666477 64.999931,64.999863 
	C57.833450,65.000000 50.666901,65.000000 43.000290,65.000000 
M19.713892,29.861530 
	C21.092302,30.941607 22.470713,32.021683 24.184540,33.701450 
	C25.177402,35.233734 26.170265,36.766014 27.163128,38.298298 
	C26.839563,38.569733 26.515999,38.841167 26.192434,39.112602 
	C24.886213,38.040188 23.727474,36.420650 22.240238,36.019749 
	C19.828997,35.369774 17.140186,35.167435 14.713345,35.595982 
	C14.156544,35.694305 14.187881,39.123203 14.013855,41.648762 
	C14.449014,42.364540 14.884173,43.080315 15.356579,44.475132 
	C16.224571,45.187641 17.433693,46.691936 17.906876,46.488068 
	C21.883688,44.774708 24.121050,47.771679 26.849672,49.452049 
	C28.231613,50.303093 29.613649,51.153984 30.997217,52.196213 
	C30.997217,52.196213 31.263748,52.221226 31.263748,52.221226 
	C31.263748,52.221226 31.002531,51.998138 30.981853,51.313278 
	C30.431112,49.858379 29.880371,48.403484 29.082073,46.247078 
	C28.359598,44.160393 27.637121,42.073708 27.643129,39.926132 
	C29.841738,41.528107 32.040344,43.130077 34.142815,44.662003 
	C35.629646,42.313396 36.571487,39.122028 32.517284,36.065434 
	C31.120277,35.012184 30.265625,33.239567 29.027611,31.168577 
	C28.607983,30.434746 28.188353,29.700912 27.860716,28.272720 
	C28.305771,27.208595 28.750826,26.144470 29.817167,24.767929 
	C34.117710,22.122131 35.073437,22.466846 35.274239,27.253738 
	C34.482407,28.130169 32.940735,29.146568 33.072166,29.850657 
	C33.276047,30.942871 34.888973,32.779854 35.434429,32.626709 
	C37.843838,31.950228 41.740612,33.697941 42.147079,29.126490 
	C42.179279,28.764383 42.670383,28.443079 42.907619,28.152538 
	C44.261108,28.584320 45.446438,28.962454 47.574810,29.641432 
	C46.944122,27.561678 46.549694,26.261026 46.063511,24.269150 
	C44.377686,22.510191 42.691856,20.751232 40.613445,18.418577 
	C39.065033,17.949213 37.516621,17.479849 35.930496,16.318550 
	C36.396248,15.024848 36.862003,13.731146 37.849178,10.989112 
	C34.178883,13.060751 31.587036,14.523675 28.363276,16.199728 
	C27.273472,17.797636 26.183668,19.395544 24.720371,21.518324 
	C23.531748,21.607561 22.343122,21.696800 20.492125,21.835768 
	C20.295555,22.474428 19.895214,23.775143 19.264400,25.882576 
	C19.350182,26.987711 19.435961,28.092844 19.713892,29.861530 
M51.628555,35.901775 
	C47.526222,32.397675 44.250221,34.656120 41.319309,37.602047 
	C37.541714,41.398998 37.080814,43.910770 38.569057,46.000671 
	C43.267540,43.949478 47.770229,41.983757 52.870979,39.756947 
	C52.740284,39.266369 52.377491,37.904587 51.628555,35.901775 
z"/>
<path fill="#73A82F" opacity="1.000000" stroke="none" 
	d="
M13.948545,41.019314 
	C14.187881,39.123203 14.156544,35.694305 14.713345,35.595982 
	C17.140186,35.167435 19.828997,35.369774 22.240238,36.019749 
	C23.727474,36.420650 24.886213,38.040188 26.192434,39.112602 
	C26.515999,38.841167 26.839563,38.569733 27.163128,38.298298 
	C26.170265,36.766014 25.177402,35.233734 24.423706,33.398186 
	C26.162989,32.661804 27.663103,32.228683 29.163218,31.795567 
	C30.265625,33.239567 31.120277,35.012184 32.517284,36.065434 
	C36.571487,39.122028 35.629646,42.313396 34.142815,44.662003 
	C32.040344,43.130077 29.841738,41.528107 26.947689,40.106613 
	C24.426876,40.959003 22.601503,41.630917 20.425236,42.338326 
	C19.135353,42.345009 18.196365,42.316200 16.971066,42.054722 
	C15.772684,41.554474 14.860615,41.286892 13.948545,41.019314 
z"/>
<path fill="#74AB2F" opacity="1.000000" stroke="none" 
	d="
M51.821625,36.222290 
	C52.377491,37.904587 52.740284,39.266369 52.870979,39.756947 
	C47.770229,41.983757 43.267540,43.949478 38.569057,46.000671 
	C37.080814,43.910770 37.541714,41.398998 41.319309,37.602047 
	C44.250221,34.656120 47.526222,32.397675 51.821625,36.222290 
z"/>
<path fill="#A9D560" opacity="1.000000" stroke="none" 
	d="
M35.951897,26.980633 
	C35.073437,22.466846 34.117710,22.122131 29.028324,24.907074 
	C25.324610,25.056099 22.409742,25.065977 19.494873,25.075855 
	C19.895214,23.775143 20.295555,22.474428 20.492125,21.835768 
	C22.343122,21.696800 23.531748,21.607561 25.367594,21.260258 
	C28.814850,21.004990 31.646446,21.266338 34.405025,20.929565 
	C36.650726,20.655411 38.808994,19.665045 41.006031,18.992273 
	C42.691856,20.751232 44.377686,22.510191 45.693695,24.631363 
	C42.199883,25.655930 39.075890,26.318281 35.951897,26.980633 
z"/>
<path fill="#97C74E" opacity="1.000000" stroke="none" 
	d="
M35.613068,27.117186 
	C39.075890,26.318281 42.199883,25.655930 45.739571,24.976974 
	C46.549694,26.261026 46.944122,27.561678 47.574810,29.641432 
	C45.446438,28.962454 44.261108,28.584320 42.907619,28.152538 
	C42.670383,28.443079 42.179279,28.764383 42.147079,29.126490 
	C41.740612,33.697941 37.843838,31.950228 35.434429,32.626709 
	C34.888973,32.779854 33.276047,30.942871 33.072166,29.850657 
	C32.940735,29.146568 34.482407,28.130169 35.613068,27.117186 
z"/>
<path fill="#416D10" opacity="1.000000" stroke="none" 
	d="
M17.257380,42.287388 
	C18.196365,42.316200 19.135353,42.345009 20.714226,42.521263 
	C24.012619,44.095333 26.671124,45.521961 29.329630,46.948586 
	C29.880371,48.403484 30.431112,49.858379 30.990887,51.656681 
	C30.999918,52.000084 30.995644,52.004944 30.995644,52.004944 
	C29.613649,51.153984 28.231613,50.303093 26.849672,49.452049 
	C24.121050,47.771679 21.883688,44.774708 17.906876,46.488068 
	C17.433693,46.691936 16.224571,45.187641 15.578496,44.042305 
	C16.286068,43.168777 16.771725,42.728085 17.257380,42.287388 
z"/>
<path fill="#B1DB68" opacity="1.000000" stroke="none" 
	d="
M40.809738,18.705425 
	C38.808994,19.665045 36.650726,20.655411 34.405025,20.929565 
	C31.646446,21.266338 28.814850,21.004990 25.554340,20.997822 
	C26.183668,19.395544 27.273472,17.797636 28.719597,16.422600 
	C29.990438,17.130180 30.907438,18.012560 31.818901,18.006878 
	C33.204021,17.998245 34.585297,17.373524 35.968208,17.010485 
	C37.516621,17.479849 39.065033,17.949213 40.809738,18.705425 
z"/>
<path fill="#BADF6D" opacity="1.000000" stroke="none" 
	d="
M35.949352,16.664516 
	C34.585297,17.373524 33.204021,17.998245 31.818901,18.006878 
	C30.907438,18.012560 29.990438,17.130180 29.035555,16.316036 
	C31.587036,14.523675 34.178883,13.060751 37.849178,10.989112 
	C36.862003,13.731146 36.396248,15.024848 35.949352,16.664516 
z"/>
<path fill="#A0D055" opacity="1.000000" stroke="none" 
	d="
M19.379637,25.479216 
	C22.409742,25.065977 25.324610,25.056099 28.717678,25.063284 
	C28.750826,26.144470 28.305771,27.208595 27.366596,28.623676 
	C24.422230,29.049082 21.971987,29.123531 19.521740,29.197979 
	C19.435961,28.092844 19.350182,26.987711 19.379637,25.479216 
z"/>
<path fill="#8AB945" opacity="1.000000" stroke="none" 
	d="
M19.617817,29.529755 
	C21.971987,29.123531 24.422230,29.049082 27.320599,28.970856 
	C28.188353,29.700912 28.607983,30.434746 29.095413,31.482071 
	C27.663103,32.228683 26.162989,32.661804 24.255999,33.098343 
	C22.470713,32.021683 21.092302,30.941607 19.617817,29.529755 
z"/>
<path fill="#72AA2C" opacity="1.000000" stroke="none" 
	d="
M29.205853,46.597832 
	C26.671124,45.521961 24.012619,44.095333 21.065123,42.485771 
	C22.601503,41.630917 24.426876,40.959003 26.583447,40.137054 
	C27.637121,42.073708 28.359598,44.160393 29.205853,46.597832 
z"/>
<path fill="#72AA2C" opacity="1.000000" stroke="none" 
	d="
M16.971066,42.054722 
	C16.771725,42.728085 16.286068,43.168777 15.559874,43.702782 
	C14.884173,43.080315 14.449014,42.364540 13.981200,41.334038 
	C14.860615,41.286892 15.772684,41.554474 16.971066,42.054722 
z"/>
<path fill="#416D10" opacity="1.000000" stroke="none" 
	d="
M31.001225,51.999111 
	C31.002531,51.998138 31.263748,52.221226 31.263748,52.221226 
	C31.263748,52.221226 30.997217,52.196213 30.996429,52.100578 
	C30.995644,52.004944 30.999918,52.000084 31.001225,51.999111 
z"/>
</svg>
